<?xml version="1.0" encoding="UTF-8" standalone="no" ?>
<!DOCTYPE svg PUBLIC "-//W3C//DTD SVG 1.1//EN" "http://www.w3.org/Graphics/SVG/1.1/DTD/svg11.dtd">
<svg xmlns="http://www.w3.org/2000/svg" xmlns:xlink="http://www.w3.org/1999/xlink" version="1.1" width="147.3128" height="123.35360000000001" xml:space="preserve">
<desc>Created with Fabric.js 1.6.0-rc.1</desc>
<defs></defs>
<g style="stroke: none; stroke-width: 1; stroke-dasharray: none; stroke-linecap: butt; stroke-linejoin: miter; stroke-miterlimit: 10; fill: none; fill-rule: nonzero; opacity: 1;" transform="translate(16.500000000000007 10) scale(0.64 0.64)" >
  <path d="M 153.822 87.942 l 14.838 -4.683 l -1.561 -1.901 l -12.347 3.734 z M 136.776 72.14 l 1.209 0.854 V 58.241 l -1.209 0.47 l -1.211 -0.47 v 14.753 z M 126.76 129.967 l 1.813 2.871 a 42.97 42.97 0 0 0 7.975 0.756 c 2.904 0 5.744 -0.295 8.489 -0.851 l 1.844 -2.917 a 40.212 40.212 0 0 1 -10.333 1.349 c -3.374 0 -6.654 -0.424 -9.788 -1.208 z M 122.505 53.157 l -3.264 -1.271 a 42.865 42.865 0 0 0 -14.142 10.178 l 0.24 3.418 a 40.446 40.446 0 0 1 17.166 -12.325 z M 94.28 96.646 l -0.032 -0.028 c 0.764 5.679 2.532 10.732 5.307 15.483 l 3.206 0.678 a 40.01 40.01 0 0 1 -6.356 -18.803 l -2.125 2.67 z M 168.175 66.014 l 0.243 -3.479 a 42.813 42.813 0 0 0 -14.354 -10.55 l -3.247 1.265 a 40.42 40.42 0 0 1 17.358 12.764 z M 176.731 93.454 a 39.995 39.995 0 0 1 -6.495 19.477 l 3.399 -0.923 a 42.373 42.373 0 0 0 5.269 -15.827 l -2.173 -2.727 z M 136.548 139.7 a 48.6 48.6 0 0 1 -14.907 -2.337 l -2.989 1.521 a 50.857 50.857 0 0 0 17.896 3.235 a 50.902 50.902 0 0 0 18.273 -3.383 l -3.005 -1.497 a 48.528 48.528 0 0 1 -15.268 2.461 z M 122.336 44.219 l 1.495 -2.936 c -12.944 3.319 -23.922 11.588 -30.804 22.654 l 3.25 -0.558 c 6.197 -9.037 15.351 -15.893 26.059 -19.16 z M 176.754 63.29 l 3.258 0.561 c -6.876 -11.009 -17.809 -19.236 -30.697 -22.557 l 1.649 2.983 c 10.583 3.28 19.634 10.076 25.79 19.013 z M 87.75 90.902 c 0 -0.184 0.011 -0.368 0.015 -0.553 l -2.354 -2.271 c -0.051 0.935 -0.08 1.875 -0.08 2.824 c 0 12.748 4.692 24.417 12.427 33.389 l 0.51 -3.178 c -6.578 -8.317 -10.518 -18.809 -10.518 -30.211 z M 187.705 88.495 l -2.362 2.284 c 0 0.042 0.004 0.081 0.004 0.123 c 0 11.108 -3.737 21.355 -10.012 29.566 l 0.572 3.166 c 7.398 -8.883 11.858 -20.295 11.858 -32.732 a 49.288 49.288 0 0 0 -0.06 -2.407 z M 144.426 106.292 l 9.042 12.865 l 1.477 -2.087 l 0.083 -0.021 l -7.635 -10.757 z M 118.801 85.092 l -12.39 -3.849 l -1.36 1.874 l 14.679 4.825 z M 125.914 106.292 l -7.308 10.778 l 1.237 1.958 l 9.04 -12.736 z M 136.776 74.115 c -0.129 0.093 -0.566 0.397 -1.211 0.855 c -3.66 2.588 -14.171 10.014 -14.929 10.551 a 6.237 6.237 0 0 1 0.087 0.273 l 6.154 18.883 h 19.794 l 6.153 -18.883 l 0.025 -0.079 l 0.063 -0.194 l -14.929 -10.551 c -0.643 -0.458 -1.08 -0.762 -1.207 -0.855 z M 120.809 50.766 c 0.122 0.046 0.324 0.127 0.589 0.228 c 0.741 0.29 1.998 0.778 3.494 1.361 l 10.674 4.155 c 0.682 0.265 1.123 0.438 1.211 0.471 c 0.088 -0.033 0.528 -0.206 1.209 -0.471 l 10.483 -4.081 c 1.433 -0.556 2.667 -1.038 3.456 -1.343 l 0.79 -0.308 c -0.44 -0.797 -2.349 -4.247 -3.937 -7.123 c -0.607 -1.093 -1.162 -2.103 -1.575 -2.851 a 51.187 51.187 0 0 0 -21.318 0.003 c -0.38 0.741 -0.885 1.737 -1.436 2.815 l -3.64 7.144 z M 169.95 63.755 l -0.038 0.556 c -0.055 0.761 -0.146 2.098 -0.26 3.694 c -0.313 4.44 -0.762 10.865 -0.873 12.472 l -0.026 0.369 l 1.382 1.733 c 1.686 2.116 4.56 5.727 6.683 8.395 l 2.309 2.897 c 0.132 0.168 0.238 0.299 0.304 0.381 c 0.62 -0.602 3.443 -3.33 5.858 -5.662 c 0.846 -0.82 1.634 -1.582 2.268 -2.194 a 50.847 50.847 0 0 0 -6.459 -20.721 l -3.134 -0.541 l -8.014 -1.379 z M 172.521 113.98 c -0.026 0.005 -0.067 0.019 -0.104 0.028 c -0.513 0.139 -1.873 0.509 -3.611 0.978 l -12.833 3.477 l -6.731 10.652 l -1.972 3.115 c -0.211 0.334 -0.367 0.583 -0.452 0.714 c 0.754 0.376 4.124 2.058 7.111 3.546 c 1.055 0.525 2.06 1.025 2.887 1.439 a 51.435 51.435 0 0 0 17.734 -12.73 l -0.553 -3.056 a 4910.47 4910.47 0 0 0 -1.476 -8.163 z M 93.989 94.124 l 0.133 0.128 l 2.169 -2.723 l 7.127 -8.95 l 1.381 -1.733 l -0.026 -0.369 l -0.914 -13.055 l -0.255 -3.645 l -0.002 -0.022 c -0.897 0.154 -5.113 0.878 -8.526 1.469 c -1.201 0.208 -2.304 0.397 -3.125 0.538 a 50.785 50.785 0 0 0 -6.378 20.225 c 0.583 0.566 1.379 1.333 2.258 2.184 c 2.374 2.294 5.306 5.127 6.158 5.953 z M 126.739 132.953 c -0.074 -0.117 -0.203 -0.324 -0.377 -0.595 l -1.925 -3.049 c -1.854 -2.929 -4.34 -6.862 -5.757 -9.103 l -1.103 -1.744 l -0.253 -0.067 c -1.486 -0.404 -8.797 -2.382 -13.144 -3.56 l -3.137 -0.852 c -0.017 0.111 -0.043 0.276 -0.077 0.479 l -1.331 8.305 c -0.191 1.2 -0.367 2.286 -0.492 3.071 c 4.881 5.221 10.828 9.432 17.504 12.257 c 0.796 -0.405 1.803 -0.917 2.876 -1.468 c 2.977 -1.514 6.447 -3.285 7.216 -3.674 z" style="stroke: none; stroke-width: 1; stroke-dasharray: none; stroke-linecap: butt; stroke-linejoin: miter; stroke-miterlimit: 10; fill: #231F20; fill-rule: nonzero; opacity: 1;" transform="" stroke-linecap="round" />
  <path d="M 89.063 138.035 c -5.007 -5.464 -12.456 -13.631 -13.003 -26.987 H 65.237 v 49.438 a 51.007 51.007 0 0 0 31.17 -11.599 c -1.111 -2.223 -3.631 -6.806 -7.344 -10.852 z M 31.121 148.601 c 8.468 7.076 19.248 11.469 31.023 11.873 v -49.426 H 51.32 c -0.546 13.356 -7.995 21.523 -13.002 26.987 c -3.557 3.878 -6.021 8.25 -7.197 10.566 z M 38.318 80.971 c 5.007 5.464 12.456 13.628 13.002 26.986 h 10.823 v -49.91 c -11.856 0.408 -22.699 4.858 -31.193 12.02 c 1.095 2.203 3.627 6.826 7.368 10.904 z M 96.579 69.771 a 51.045 51.045 0 0 0 -31.341 -11.737 v 49.923 h 10.823 c 0.547 -13.357 7.996 -21.522 13.003 -26.986 c 3.917 -4.275 6.51 -9.141 7.515 -11.2 z" style="stroke: none; stroke-width: 1; stroke-dasharray: none; stroke-linecap: butt; stroke-linejoin: miter; stroke-miterlimit: 10; fill: #DD7027; fill-rule: nonzero; opacity: 1;" transform="" stroke-linecap="round" />
  <path d="M 79.154 111.048 c 0.535 12.146 7.231 19.486 12.188 24.896 c 3.625 3.952 6.14 8.277 7.467 10.835 c 9.66 -8.987 15.852 -21.643 16.336 -35.731 H 79.154 z M 28.735 146.47 c 1.364 -2.591 3.823 -6.731 7.304 -10.525 c 4.957 -5.41 11.655 -12.75 12.189 -24.896 H 12.72 c 0.482 13.93 6.541 26.455 16.015 35.421 z M 98.978 71.9 c -1.274 2.506 -3.855 7.041 -7.634 11.162 c -4.958 5.411 -11.655 12.75 -12.189 24.896 h 36.005 c -0.357 -14.201 -6.509 -26.977 -16.182 -36.058 z M 48.228 107.957 c -0.534 -12.145 -7.232 -19.485 -12.189 -24.896 c -3.632 -3.963 -6.151 -8.293 -7.474 -10.852 c -9.485 9.063 -15.503 21.71 -15.856 35.747 h 35.519 z" style="stroke: none; stroke-width: 1; stroke-dasharray: none; stroke-linecap: butt; stroke-linejoin: miter; stroke-miterlimit: 10; fill: #DD7027; fill-rule: nonzero; opacity: 1;" transform="" stroke-linecap="round" />
</g>
  <g transform="translate(72.91 19.6) rotate(343.65)">
   <text font-family="Chunky" font-size="40" font-style="italic" font-weight="normal" style="stroke: none; stroke-width: 1; stroke-dasharray: none; stroke-linecap: butt; stroke-linejoin: miter; stroke-miterlimit: 10; fill: #e83a05; fill-rule: nonzero; opacity: 1;" ><tspan x="-57.23" y="8.98" style="stroke: none; stroke-width: 0; stroke-dasharray: none; stroke-linecap: butt; stroke-linejoin: miter; stroke-miterlimit: 4; fill: #e83a05; fill-rule: ; opacity: 1;">S</tspan><tspan x="-31.74" y="8.98" style="stroke: none; stroke-width: 0; stroke-dasharray: none; stroke-linecap: butt; stroke-linejoin: miter; stroke-miterlimit: 4; fill: #e83a05; fill-rule: ; opacity: 1;">D</tspan><tspan x="-2.54" y="8.98" style="stroke: none; stroke-width: 0; stroke-dasharray: none; stroke-linecap: butt; stroke-linejoin: miter; stroke-miterlimit: 4; fill: #e83a05; fill-rule: ; opacity: 1;">A</tspan><tspan x="30.39" y="8.98" style="stroke: none; stroke-width: 0; stroke-dasharray: none; stroke-linecap: butt; stroke-linejoin: miter; stroke-miterlimit: 4; fill: #e83a05; fill-rule: ; opacity: 1;">T</tspan></text>
 </g>
  <g transform="translate(47.01 87.58)">
   <text font-family="ADAMCG PRO" font-size="40" font-weight="normal" style="stroke: none; stroke-width: 1; stroke-dasharray: none; stroke-linecap: butt; stroke-linejoin: miter; stroke-miterlimit: 10; fill: #000000; fill-rule: nonzero; opacity: 1;" ><tspan x="0" y="8.98" fill="#000000"></tspan></text>
 </g>
</svg>